<?xml version="1.0" encoding="UTF-8"?><svg id="Calque_2" xmlns="http://www.w3.org/2000/svg" viewBox="0 0 23.86 23.86"><g id="Calque_1-2"><g><rect width="23.86" height="23.86" rx="4.96" ry="4.96" style="fill:none;"/><g><path d="M12.84,8.7c-.91-1.22-.38-.55,.2,.69,1,2.15-.65,5.04-3.67,6.44-2.54,1.18-5.23,.92-6.63-.45h0c.32,.05,.65,.08,.99,.08,3.52,0,6.37-2.59,6.37-5.79,0-.83-.2-1.63-.55-2.34-.2-.37-.4-.79-.67-1.05-.41-.08-.99-.13-1.33-.13-3.52,0-6.37,2.59-6.37,5.79,0,.57,.09,1.12,.26,1.64l.37-.04c-.04-.32-.03-.65,.02-.97,.27-1.72,1.73-3.51,3.91-4.52,1.1-.51,2.46-.71,3.54-.71,.81,2.13-.81,4.88-3.75,6.24-1.19,.55-2.42,.78-3.53,.74,0,0,.06,.5,.39,1.02,1.16,1.45,3.03,2.4,5.15,2.4,3.52,0,6.37-2.59,6.37-5.79,0-1.2-.4-2.31-1.08-3.23Z"/><path d="M22.46,11.32c-.28,1.72-1.9,3.5-4.08,4.51-3.03,1.4-6.29,.8-7.29-1.36-1-2.15,.65-5.04,3.67-6.44,2.53-1.17,5.2-.93,6.6,.43l.11-.23c-1.17-1.28-2.93-2.09-4.9-2.09-3.52,0-6.37,2.59-6.37,5.79s2.85,5.79,6.37,5.79c3.79,0,6.11-3.15,6.11-6.41h-.22Z"/></g></g></g></svg>