<?xml version="1.0" standalone="no"?>
<!DOCTYPE svg PUBLIC "-//W3C//DTD SVG 20010904//EN"
 "http://www.w3.org/TR/2001/REC-SVG-20010904/DTD/svg10.dtd">
<svg version="1.0" xmlns="http://www.w3.org/2000/svg"
 width="700.000000pt" height="700.000000pt" viewBox="0 0 700.000000 700.000000"
 preserveAspectRatio="xMidYMid meet">
<metadata>
Created by potrace 1.14, written by Peter Selinger 2001-2017
</metadata>
<g transform="translate(0.000000,700.000000) scale(0.100000,-0.100000)"
fill="#000000" stroke="none">
<path d="M2045 5188 c-63 -6 -133 -15 -190 -23 -11 -2 -60 -12 -110 -24 -497
-118 -918 -416 -1171 -831 -92 -151 -171 -356 -200 -520 -4 -25 -8 -47 -9 -50
-7 -25 -18 -182 -18 -250 0 -143 24 -312 59 -422 15 -47 16 -48 57 -48 23 0
47 4 53 8 7 4 11 47 11 112 0 132 10 202 49 340 30 101 123 297 190 395 186
276 455 516 773 689 57 31 105 56 107 56 1 0 32 14 69 31 236 109 626 189 945
193 l64 1 18 -60 c10 -32 20 -71 22 -85 3 -14 8 -45 12 -70 16 -105 3 -271
-32 -408 -104 -400 -422 -793 -866 -1068 -96 -59 -319 -171 -398 -199 -163
-58 -336 -106 -435 -121 -27 -5 -52 -9 -55 -9 -63 -14 -189 -24 -302 -25 -113
-1 -111 1 -79 -96 44 -136 83 -201 187 -313 261 -283 706 -517 1080 -567 27
-3 51 -8 54 -9 11 -6 185 -18 275 -19 82 -1 197 7 285 19 92 12 116 16 132 21
10 3 30 7 45 10 235 41 631 236 808 398 57 51 66 54 97 27 13 -11 37 -31 53
-46 92 -79 325 -216 465 -272 249 -101 471 -145 740 -147 194 -1 268 5 412 35
142 28 266 72 413 145 490 241 843 721 960 1307 8 37 16 86 19 110 12 102 18
166 19 219 2 55 1 57 -26 61 -15 2 -30 0 -33 -4 -2 -4 -15 -49 -28 -101 -119
-455 -542 -908 -1110 -1188 -89 -44 -206 -96 -261 -115 -554 -198 -1116 -184
-1517 38 l-78 43 33 34 c208 217 380 554 422 825 5 28 10 57 12 65 2 8 6 87 8
175 5 217 -16 364 -82 555 -23 68 -110 253 -143 307 -8 12 -12 24 -10 26 67
53 156 114 285 194 51 32 242 125 323 157 153 61 366 121 497 140 23 4 51 8
64 11 12 2 59 7 104 11 427 36 813 -62 1075 -272 l77 -62 17 32 18 31 -93 90
c-291 281 -713 472 -1127 512 -99 10 -336 10 -430 0 -97 -9 -154 -19 -300 -52
-60 -13 -233 -75 -321 -115 -571 -257 -960 -769 -1027 -1350 -15 -131 -4 -396
19 -456 4 -13 7 -24 4 -24 -7 0 45 -184 72 -250 29 -73 106 -231 128 -262 13
-20 11 -23 -28 -53 -399 -305 -929 -489 -1402 -488 -148 0 -349 25 -441 54
-17 5 -40 11 -50 13 -67 14 -260 103 -350 162 -66 44 -156 127 -129 120 71
-19 307 -26 443 -14 69 6 181 23 287 44 38 7 183 51 250 76 143 53 415 200
481 261 7 7 27 23 45 37 60 44 200 183 259 255 167 204 285 447 338 696 49
227 45 439 -12 701 -37 169 -206 509 -297 600 -10 10 -39 20 -66 24 -26 3 -50
7 -53 9 -23 14 -355 24 -455 13z m1780 -944 c24 -54 58 -155 71 -213 14 -59
12 -297 -3 -376 -56 -295 -223 -586 -483 -843 -127 -126 -124 -125 -154 -60
-65 140 -91 276 -83 440 7 146 12 176 53 306 75 241 227 477 447 695 60 59
113 107 118 107 5 0 20 -25 34 -56z"/>
</g>
</svg>
